<!DOCTYPE svg PUBLIC "-//W3C//DTD SVG 1.1//EN" "http://www.w3.org/Graphics/SVG/1.1/DTD/svg11.dtd">
<!-- Uploaded to: SVG Repo, www.svgrepo.com, Transformed by: SVG Repo Mixer Tools -->
<svg version="1.1" id="Uploaded to svgrepo.com" xmlns="http://www.w3.org/2000/svg" xmlns:xlink="http://www.w3.org/1999/xlink" width="64px" height="64px" viewBox="0 0 32 32" xml:space="preserve" fill="#4f4f4f" stroke="#4f4f4f">
<g id="SVGRepo_bgCarrier" stroke-width="0"/>
<g id="SVGRepo_tracerCarrier" stroke-linecap="round" stroke-linejoin="round"/>
<g id="SVGRepo_iconCarrier"> <style type="text/css"> .bentblocks_een{fill:#4f4f4f;} </style> <path class="bentblocks_een" d="M26,4H6C4.9,4,4,4.9,4,6v16c0,1.1,0.9,2,2,2h6l4,4l4-4h6c1.1,0,2-0.9,2-2V6C28,4.9,27.1,4,26,4z M26,22h-6.828L16,25.172L12.828,22H6V6h20V22z M24,18H8v-2h16V18z M24,12H8v-2h16V12z"/> </g>
</svg>